<svg id="Layer_1" data-name="Layer 1" xmlns="http://www.w3.org/2000/svg" xmlns:xlink="http://www.w3.org/1999/xlink" viewBox="0 0 1431.39 1597"><defs><style>.cls-1,.cls-7{fill:none;}.cls-2{clip-path:url(#clip-path);}.cls-3{fill:url(#linear-gradient);}.cls-4{fill:url(#linear-gradient-2);}.cls-5{fill:url(#linear-gradient-3);}.cls-6{fill:url(#linear-gradient-4);}.cls-7{stroke:#010101;}.cls-7,.cls-8{stroke-linecap:round;stroke-linejoin:round;stroke-width:15px;}.cls-8{fill:#fff;stroke:#000;}</style><clipPath id="clip-path" transform="translate(465.91 554.39)"><path id="SVGID" class="cls-1" d="M289.73,1025.31,168.09,845.66v-342l320,474-175.77,55.51A20,20,0,0,1,289.73,1025.31ZM488.09-178.34c-5.41,4.25-197.12,56.71-193.88,65.5L168.09,65.66v209Zm-723-368-176,55.59a20,20,0,0,0-14,19.07V1010.37a20,20,0,0,0,26,19.07l164-51.78Z"/></clipPath><linearGradient id="linear-gradient" x1="477" y1="1597" x2="477" y2="8" gradientUnits="userSpaceOnUse"><stop offset="0" stop-color="#f9d5e5"/><stop offset="1" stop-color="#a8d9de"/></linearGradient><linearGradient id="linear-gradient-2" x1="477" y1="1597" x2="477" y2="8" gradientUnits="userSpaceOnUse"><stop offset="0" stop-color="#d484b6"/><stop offset="1" stop-color="#1d4293"/></linearGradient><linearGradient id="linear-gradient-3" x1="0" y1="802" x2="963" y2="802" xlink:href="#linear-gradient-2"/><linearGradient id="linear-gradient-4" x1="477" y1="1597" x2="477" y2="8" gradientUnits="userSpaceOnUse"><stop offset="0" stop-color="#8d89bc"/><stop offset="1" stop-color="#a7d8e0"/></linearGradient></defs><g class="cls-2"><rect class="cls-3" y="8" width="954" height="1589"/><rect class="cls-4" y="8" width="954" height="1589"/><rect class="cls-5" y="8" width="963" height="1588"/><rect class="cls-6" y="8" width="954" height="1589"/></g><path class="cls-7" d="M-215.41-546.89l-195.52,56.14s-14,4.83-14,19.07V1010.37s.91,23.33,26,19.07,183.47-52.33,183.47-52.33" transform="translate(465.91 554.39)"/><path class="cls-7" d="M498.09-177.89,314.47-123.32s-15.34,3.52-33.08,28.62L171.38,61" transform="translate(465.91 554.39)"/><path class="cls-7" d="M498.35,977.11l-186,56.06s-13.37,5.75-22.59-7.86-121.14-178.2-121.14-178.2" transform="translate(465.91 554.39)"/><path class="cls-8" d="M481.77,968.29,205.18,557.87c-11-16.37-36.59-8.56-36.59,11.18V957.11a20,20,0,0,1-20,20h-364a20,20,0,0,1-20-20v-1484a20,20,0,0,1,20-20h364a20,20,0,0,1,20,20V211.94c0,19.52,25.11,27.48,36.35,11.52l276.8-392.87a20,20,0,0,1,16.35-8.48H930.45a20,20,0,0,1,15.74,32.34L526.34,390.18a20,20,0,0,0,.18,24.89l427,529.49A20,20,0,0,1,938,977.11H498.35A20,20,0,0,1,481.77,968.29Z" transform="translate(465.91 554.39)"/></svg>